<svg xmlns="http://www.w3.org/2000/svg" version="1.1" xmlns:xlink="http://www.w3.org/1999/xlink" xmlns:svgjs="http://svgjs.dev/svgjs" width="1500" height="1500" viewBox="0 0 1500 1500"><rect width="1500" height="1500" fill="#444444"></rect><g transform="matrix(0.6666666666666666,0,0,0.6666666666666666,249.39393939393938,602.7284132544293)"><svg viewBox="0 0 396 116" data-background-color="#444444" preserveAspectRatio="xMidYMid meet" height="439" width="1500" xmlns="http://www.w3.org/2000/svg" xmlns:xlink="http://www.w3.org/1999/xlink"><g id="tight-bounds" transform="matrix(1,0,0,1,0.2400000000000091,0.37188176248130844)"><svg viewBox="0 0 395.52 115.25623647503735" height="115.25623647503735" width="395.52"><g><svg viewBox="0 0 600.348431046016 174.94412605192477" height="115.25623647503735" width="395.52"><g transform="matrix(1,0,0,1,0,24.178240286481646)"><svg viewBox="0 0 395.52 126.58764547896148" height="126.58764547896148" width="395.52"><g id="textblocktransform"><svg viewBox="0 0 395.52 126.58764547896148" height="126.58764547896148" width="395.52" id="textblock"><g><svg viewBox="0 0 395.52 126.58764547896148" height="126.58764547896148" width="395.52"><g transform="matrix(1,0,0,1,0,0)"><svg width="395.52" viewBox="1.7 -35.35 111.7 35.75" height="126.58764547896148" data-palette-color="#ffffff"><path d="M33.4-29.95L29.95-25.9Q28.05-28 25.45-29.2 22.85-30.4 20.2-30.4L20.2-30.4Q17.6-30.4 15.33-29.43 13.05-28.45 11.33-26.7 9.6-24.95 8.65-22.63 7.7-20.3 7.7-17.6L7.7-17.6Q7.7-14.95 8.65-12.63 9.6-10.3 11.33-8.55 13.05-6.8 15.33-5.8 17.6-4.8 20.2-4.8L20.2-4.8Q22.85-4.8 25.4-5.93 27.95-7.05 29.95-9L29.95-9 33.45-5.35Q31.7-3.6 29.48-2.3 27.25-1 24.83-0.3 22.4 0.4 19.9 0.4L19.9 0.4Q16.05 0.4 12.75-0.98 9.45-2.35 6.98-4.8 4.5-7.25 3.1-10.53 1.7-13.8 1.7-17.55L1.7-17.55Q1.7-21.3 3.1-24.53 4.5-27.75 7.03-30.2 9.55-32.65 12.88-34 16.2-35.35 20.1-35.35L20.1-35.35Q22.6-35.35 25-34.7 27.4-34.05 29.55-32.85 31.7-31.65 33.4-29.95L33.4-29.95ZM39.45-35L53.65-35Q60.4-35 64.07-31.88 67.75-28.75 67.75-23.1L67.75-23.1Q67.75-17.2 64.07-13.93 60.4-10.65 53.65-10.65L53.65-10.65 45.35-10.65 45.35 0 39.45 0 39.45-35ZM45.35-15.7L53.65-15.7Q57.7-15.7 59.92-17.48 62.15-19.25 62.15-22.95L62.15-22.95Q62.15-26.5 59.92-28.23 57.7-29.95 53.65-29.95L53.65-29.95 45.35-29.95 45.35-15.7ZM61.65 0L53.85-12.95 59.65-12.95 68.35 0 61.65 0ZM75.59 0L75.59-35 82.45-35 94.55-11.25 106.55-35 113.4-35 113.4 0 107.95 0 107.9-26.75 96.4-3.65 92.65-3.65 81.05-26.75 81.05 0 75.59 0Z" opacity="1" transform="matrix(1,0,0,1,0,0)" fill="#ffffff" class="wordmark-text-0" data-fill-palette-color="primary" id="text-0"></path></svg></g></svg></g></svg></g></svg></g><g transform="matrix(1,0,0,1,425.40430499409126,0)"><svg viewBox="0 0 174.94412605192477 174.94412605192477" height="174.94412605192477" width="174.94412605192477"><g data-palette-color="#00d1cd"><rect width="47.81806112085943" height="174.94412605192477" fill="#00d1cd" stroke="transparent" data-fill-palette-color="accent" x="0" fill-opacity="1"></rect><rect width="47.81806112085943" height="174.94412605192477" fill="#00d1cd" stroke="transparent" data-fill-palette-color="accent" x="58.31470868397492" fill-opacity="0.75"></rect><rect width="47.81806112085943" height="174.94412605192477" fill="#00d1cd" stroke="transparent" data-fill-palette-color="accent" x="116.62941736794984" fill-opacity="0.5"></rect></g></svg></g></svg></g><defs></defs></svg><rect width="395.52" height="115.25623647503735" fill="none" stroke="none" visibility="hidden"></rect></g></svg></g></svg>